<svg height="512pt" viewBox="0 0 512 512" width="512pt" xmlns="http://www.w3.org/2000/svg"><path d="M386 53c0 5.523-4.477 10-10 10s-10-4.477-10-10 4.477-10 10-10 10 4.477 10 10zm0 0M397.367 141.684l-295 115a9.998 9.998 0 00.012 18.636l57.52 22.348c6.585 16.46 36.425 91.09 36.898 92.215 2.773 6.562 11.3 8.176 16.273 3.187l44.551-44.55 82.156 65.308c5.75 4.57 14.422 1.578 16-5.719l55-255c1.637-7.64-5.867-14.359-13.41-11.425zM292.031 204.21l-125.386 74.621-33.07-12.848zm29.555 5.687L219.262 303.23c-1.328 1.215-2.422 2.938-2.918 4.797a.072.072 0 00-.008.028l-12.262 46.207-24.047-60.121zm-89.84 118.059l10.117 8.04-16.672 16.671zm107.871 60.195c-19.09-15.175-80.508-63.988-98.207-78.054L384.63 179.465zm0 0"/><path d="M462 0H50C22.43 0 0 22.43 0 50v412c0 27.57 22.43 50 50 50h412c27.57 0 50-22.43 50-50V50c0-27.57-22.43-50-50-50zm30 462c0 16.543-13.457 30-30 30H50c-16.543 0-30-13.457-30-30V50c0-16.543 13.457-30 30-30h412c16.543 0 30 13.457 30 30zm0 0"/><path d="M136 63h200c5.523 0 10-4.477 10-10s-4.477-10-10-10H136c-5.523 0-10 4.477-10 10s4.477 10 10 10zm0 0"/></svg>